<svg width="193" height="184" viewBox="0 0 193 184" fill="none" xmlns="http://www.w3.org/2000/svg">
<path d="M96 28L107.492 20.1201C111.489 17.3793 115.731 15.0155 120.166 13.0593V13.0593C127.02 10.0354 134.272 8.01099 141.702 7.04792L151.53 5.77389C155.486 5.2611 159.497 5.36795 163.42 6.09059L168.662 7.05619C173.739 7.99146 178.354 10.6073 181.765 14.483L182.125 14.8916C185.589 18.8284 187.5 23.8927 187.5 29.1368V29.1368C187.5 33.6019 186.114 37.9569 183.533 41.6006L182.302 43.3383C180.123 46.415 177.35 49.0243 174.146 51.0127L172.984 51.7342C167.438 55.1762 161.042 57 154.515 57H151.163C145.762 57 140.401 56.0645 135.319 54.2349L123.515 49.9853C119.847 48.6649 116.317 46.99 112.974 44.9844L101.835 38.3009C99.3303 36.7982 97.3062 34.6124 96 32V32" stroke="#800000" stroke-width="10"/>
<path d="M96.5 28L85.0085 20.1201C81.0115 17.3793 76.7686 15.0155 72.3344 13.0593V13.0593C65.4803 10.0354 58.2276 8.01099 50.7982 7.04792L40.97 5.77389C37.0142 5.2611 33.0026 5.36795 29.0796 6.09059L23.8378 7.05619C18.7606 7.99146 14.1456 10.6073 10.735 14.483L10.3754 14.8916C6.91101 18.8284 5 23.8927 5 29.1368V29.1368C5 33.6019 6.38615 37.9569 8.96707 41.6006L10.198 43.3383C12.3773 46.415 15.1503 49.0243 18.3537 51.0127L19.5163 51.7342C25.0616 55.1762 31.4584 57 37.9851 57H41.3367C46.7381 57 52.0987 56.0645 57.1807 54.2349L68.9852 49.9853C72.653 48.6649 76.1833 46.99 79.526 44.9844L90.6652 38.3009C93.1697 36.7982 95.1938 34.6124 96.5 32V32" stroke="#800000" stroke-width="10"/>
<path d="M91 30L95.3487 34.0769C97.7749 36.3514 99.9315 38.8973 101.776 41.6644V41.6644C103.916 44.8738 105.618 48.3542 106.838 52.0135L109 58.5L111.313 70.9324C112.435 76.9647 113 83.0874 113 89.2232V92V116.5V129.5V142.256C113 149.398 113.765 156.52 115.282 163.499L115.5 164.5L120.5 182" stroke="#800000" stroke-width="10"/>
<path d="M98.5 30L94.1513 34.0769C91.7251 36.3514 89.5685 38.8973 87.7237 41.6644V41.6644C85.5841 44.8738 83.8819 48.3542 82.6622 52.0135L80.5 58.5L78.187 70.9324C77.0647 76.9647 76.5 83.0874 76.5 89.2232V92V116.5V129.5V142.256C76.5 149.398 75.7348 156.52 74.2176 163.499L74 164.5L69 182" stroke="#800000" stroke-width="10"/>
</svg>
