<svg width="460" height="114" viewBox="0 0 460 114" fill="none" xmlns="http://www.w3.org/2000/svg">
<rect width="388" height="114" rx="11" transform="matrix(-1 0 0 1 388 0)" fill="#FCF6ED"/>
<path d="M384.81 2.56236C374.815 -3.55653 361.978 3.63604 361.978 15.3553V98.6444C361.978 110.364 374.815 117.556 384.81 111.437L452.832 69.7928C462.39 63.9417 462.39 50.058 452.832 44.2069L384.81 2.56236ZM424.728 43.9999C431.908 43.9999 437.728 49.8202 437.728 56.9999C437.728 64.1796 431.908 69.9999 424.728 69.9999C417.548 69.9997 411.728 64.1795 411.728 56.9999C411.728 49.8203 417.548 44 424.728 43.9999Z" fill="#FCF6ED"/>
</svg>
